<?xml version="1.0" encoding="UTF-8" standalone="no"?><!DOCTYPE svg PUBLIC "-//W3C//DTD SVG 1.1//EN" "http://www.w3.org/Graphics/SVG/1.1/DTD/svg11.dtd"><svg width="100%" height="100%" viewBox="0 0 113 257" version="1.1" xmlns="http://www.w3.org/2000/svg" xmlns:xlink="http://www.w3.org/1999/xlink" xml:space="preserve" style="fill-rule:evenodd;clip-rule:evenodd;stroke-linejoin:round;stroke-miterlimit:1.41421;"><path d="M76.875,220.625l-20.625,20.625l-20.625,-20.625c-2.5,-2.5 -6.25,-2.5 -8.75,0c-2.5,2.5 -2.5,6.25 0,8.75l25,25c1.25,1.25 2.813,1.875 4.375,1.875c1.563,0 3.125,-0.625 4.375,-1.875l25,-25c2.5,-2.5 2.5,-6.25 0,-8.75c-2.5,-2.5 -6.25,-2.5 -8.75,0Z" style="fill-rule:nonzero;"/><path d="M85.625,186.25c-2.5,-2.5 -6.25,-2.5 -8.75,0l-20.625,20.625l-20.625,-20.625c-2.5,-2.5 -6.25,-2.5 -8.75,0c-2.5,2.5 -2.5,6.25 0,8.75l25,25c1.25,1.25 2.813,1.875 4.375,1.875c1.563,0 3.125,-0.625 4.375,-1.875l25,-25c2.5,-2.5 2.5,-6.25 0,-8.75Z" style="fill-rule:nonzero;"/><path d="M112.5,112.5l0,-56.25c0,-30.937 -25.313,-56.25 -56.25,-56.25c-30.938,0 -56.25,25.313 -56.25,56.25l0,56.25c0,30.938 25.313,56.25 56.25,56.25c30.938,0 56.25,-25.313 56.25,-56.25Zm-56.25,43.75c-24.063,0 -43.75,-19.688 -43.75,-43.75l0,-56.25c0,-24.063 19.688,-43.75 43.75,-43.75c24.063,0 43.75,19.688 43.75,43.75l0,56.25c0,24.063 -19.688,43.75 -43.75,43.75Z" style="fill-rule:nonzero;"/><path d="M56.25,34.375c-3.438,0 -6.25,2.813 -6.25,6.25l0,18.75c0,3.438 2.813,6.25 6.25,6.25c3.438,0 6.25,-2.813 6.25,-6.25l0,-18.75c0,-3.438 -2.813,-6.25 -6.25,-6.25Z" style="fill-rule:nonzero;"/></svg>